<?xml version="1.0" standalone="no"?>
<!DOCTYPE svg PUBLIC "-//W3C//DTD SVG 20010904//EN"
 "http://www.w3.org/TR/2001/REC-SVG-20010904/DTD/svg10.dtd">
<svg version="1.0" xmlns="http://www.w3.org/2000/svg"
 width="599.831728pt" height="597.879475pt" viewBox="0 0 599.831728 597.879475"
 preserveAspectRatio="xMidYMid meet">

<g transform="translate(-0.125162,597.880686) scale(0.100000,-0.100000)"
fill="#000000" stroke="none">
<path d="M2725 5973 c-109 -9 -328 -47 -452 -78 -556 -137 -1048 -421 -1443
-832 -461 -479 -739 -1069 -816 -1735 -13 -113 -15 -197 -11 -398 3 -140 11
-277 17 -303 15 -61 64 -125 120 -157 l45 -25 590 -2 590 -3 47 64 c144 191
236 256 376 264 163 9 295 -66 367 -208 18 -35 31 -50 46 -50 62 0 194 -110
228 -190 12 -28 27 -50 34 -50 24 0 118 -72 145 -110 15 -22 34 -39 43 -40 9
0 48 -16 87 -36 83 -41 131 -91 176 -184 28 -58 31 -75 31 -155 0 -89 -10
-120 -72 -236 -2 -4 12 -9 31 -12 49 -8 139 15 180 46 40 31 76 100 76 146 l0
32 33 -26 c65 -49 176 -49 247 0 38 26 80 90 80 121 0 39 14 45 55 24 78 -40
180 -17 242 53 30 34 53 90 53 130 0 16 5 15 47 -10 127 -74 287 4 301 147 4
48 3 51 -60 127 -94 114 -1125 1370 -1133 1381 -2 2 -117 -62 -258 -142 -265
-151 -330 -179 -446 -196 -164 -23 -368 42 -444 142 -89 116 -97 258 -23 381
24 40 31 58 23 66 -8 8 -216 11 -684 11 -370 0 -673 2 -673 5 0 14 67 170 101
238 402 786 1166 1328 2032 1442 374 48 740 20 1107 -87 287 -83 639 -260 795
-400 l49 -45 -83 -112 c-46 -62 -81 -114 -79 -115 1 -2 167 -11 368 -20 201
-9 384 -19 407 -22 34 -4 42 -2 47 14 4 11 -53 172 -147 418 -140 365 -156
399 -178 402 -20 2 -36 -14 -103 -108 -44 -61 -84 -109 -90 -107 -6 3 -60 37
-121 76 -127 84 -426 234 -568 286 -223 82 -478 142 -713 170 -117 14 -498 19
-619 8z"/>
<path d="M2998 4380 c-66 -11 -165 -45 -215 -74 -61 -35 -692 -512 -730 -552
-26 -27 -33 -42 -33 -74 0 -72 20 -95 102 -120 86 -27 211 -30 275 -7 24 8
176 87 338 176 162 88 301 161 308 161 57 0 77 -21 692 -761 515 -619 619
-739 640 -739 14 0 48 16 76 35 l51 35 549 0 c302 0 549 -3 549 -7 0 -5 -13
-60 -29 -123 -210 -824 -811 -1501 -1613 -1814 -308 -121 -622 -180 -958 -180
-561 0 -1080 168 -1544 498 -54 39 -100 76 -103 82 -2 6 35 67 82 134 48 67
83 126 78 131 -7 6 -804 79 -871 79 -14 0 -22 -6 -22 -18 0 -9 60 -197 133
-417 162 -485 140 -462 273 -295 99 124 103 126 173 71 54 -42 237 -163 316
-208 267 -154 592 -276 901 -337 200 -40 368 -56 594 -56 402 0 749 65 1105
207 409 162 737 382 1050 704 470 482 748 1085 825 1784 13 120 13 464 -1 601
-6 60 -22 170 -35 244 -38 211 -107 327 -213 358 -27 9 -208 12 -623 12 -362
0 -606 4 -641 10 -31 6 -307 107 -614 226 -307 118 -590 221 -630 229 -77 16
-159 18 -235 5z"/>
<path d="M1821 2570 c-18 -4 -45 -17 -60 -27 -43 -32 -190 -214 -202 -251 -25
-77 11 -168 85 -213 34 -21 124 -26 157 -9 17 10 19 7 19 -26 0 -41 43 -124
63 -124 7 0 30 -9 52 -20 42 -22 80 -25 117 -11 22 8 23 7 20 -33 -4 -53 31
-123 77 -153 35 -24 113 -30 156 -14 16 7 23 1 37 -30 20 -46 85 -95 138 -104
144 -24 269 153 206 293 -26 59 -71 84 -149 86 -61 1 -61 1 -68 35 -15 74 -75
123 -157 129 l-58 4 4 57 c5 72 -21 129 -74 161 -30 19 -45 22 -97 17 l-62 -6
0 72 c0 59 -4 78 -23 105 -38 53 -111 78 -181 62z"/>
</g>
</svg>
