<?xml version="1.0" standalone="no"?>
<!DOCTYPE svg PUBLIC "-//W3C//DTD SVG 20010904//EN"
 "http://www.w3.org/TR/2001/REC-SVG-20010904/DTD/svg10.dtd">
<svg version="1.0" xmlns="http://www.w3.org/2000/svg"
 width="545.868842pt" height="436.653109pt" viewBox="0 0 545.868842 436.653109"
 preserveAspectRatio="xMidYMid meet">
<metadata>
Created by potrace 1.12, written by Peter Selinger 2001-2015
</metadata>
<g transform="translate(-4.084339,440.653897) scale(0.100000,-0.100000)"
fill="#000000" stroke="none">
<path d="M1170 4403 c-223 -40 -437 -185 -563 -379 -54 -83 -60 -97 -148 -339
-127 -346 -113 -319 -187 -362 -82 -48 -142 -115 -189 -211 l-38 -76 -3 -225
c-3 -157 0 -238 9 -270 20 -75 68 -161 120 -216 l49 -52 0 -190 0 -190 31 -61
c35 -71 99 -124 170 -142 27 -7 103 -10 190 -8 130 3 149 5 193 28 56 28 119
102 137 158 6 20 13 110 16 199 l5 163 595 2 595 3 23 60 c85 227 230 418 413
543 233 159 382 201 745 211 l237 6 -30 63 c-36 77 -112 159 -195 211 l-62 40
-53 143 c-29 79 -75 204 -102 278 -28 74 -66 162 -85 195 -106 183 -269 316
-474 387 l-94 33 -640 1 c-352 1 -651 0 -665 -3z m1234 -554 c78 -26 165 -92
202 -155 23 -40 134 -341 134 -365 0 -5 -393 -9 -929 -9 l-930 0 53 158 c64
191 75 214 135 275 52 54 81 72 161 98 50 16 106 18 582 18 510 1 530 0 592
-20z m-1630 -899 c105 -51 216 -193 216 -277 0 -44 -44 -88 -97 -97 -76 -12
-252 -7 -291 9 -76 33 -122 103 -122 190 0 160 147 247 294 175z"/>
<path d="M3160 2770 c-182 -18 -352 -92 -485 -211 -143 -127 -203 -235 -331
-592 l-89 -249 -50 -25 c-108 -55 -215 -197 -244 -323 -17 -73 -14 -395 4
-465 23 -88 64 -164 117 -218 l48 -48 0 -164 c0 -227 17 -292 96 -367 61 -57
104 -68 274 -68 142 0 159 2 205 24 65 30 113 78 142 144 21 48 23 67 23 212
l0 160 855 0 855 0 0 -123 c0 -203 23 -284 101 -350 65 -56 111 -67 278 -67
141 0 148 1 208 30 46 21 71 41 95 75 53 74 56 94 57 301 l1 190 36 35 c51 48
99 125 124 200 20 58 21 80 18 294 l-3 230 -38 77 c-44 91 -118 171 -199 217
-31 18 -59 40 -63 49 -4 9 -49 132 -101 272 -52 140 -106 278 -120 305 -133
255 -395 429 -688 455 -118 11 -1017 11 -1126 0z m1115 -551 c74 -14 125 -39
182 -92 63 -58 87 -104 148 -286 l54 -161 -930 0 c-562 0 -929 4 -929 9 0 16
107 317 125 352 42 80 153 160 249 179 64 12 1032 12 1101 -1z m-1581 -911
c51 -26 142 -112 171 -163 61 -104 51 -170 -29 -200 -36 -14 -70 -16 -178 -13
-156 4 -184 15 -229 86 -25 39 -29 56 -29 114 0 40 6 80 14 96 24 45 73 84
123 98 56 15 102 9 157 -18z m2266 2 c65 -33 100 -95 100 -177 -1 -86 -46
-156 -122 -188 -44 -18 -251 -21 -310 -5 -46 13 -78 52 -78 95 0 38 49 137 88
178 107 113 221 147 322 97z"/>
</g>
</svg>
