<?xml version="1.0" standalone="no"?>
<!DOCTYPE svg PUBLIC "-//W3C//DTD SVG 20010904//EN"
 "http://www.w3.org/TR/2001/REC-SVG-20010904/DTD/svg10.dtd">
<svg version="1.0" xmlns="http://www.w3.org/2000/svg"
 width="347.366941pt" height="240.477227pt" viewBox="0 0 347.366941 240.477227"
 preserveAspectRatio="xMidYMid meet">
<metadata>
</metadata>
<g transform="translate(-24.633059,310.000000) scale(0.100000,-0.100000)"
fill="#000000" stroke="none">
<path d="M275 3074 c-14 -15 -22 -30 -20 -34 3 -5 0 -10 -6 -12 -7 -2 2 -19
21 -41 l32 -37 1082 0 c1075 0 1082 0 1104 20 29 27 29 83 2 110 -20 20 -33
20 -1105 20 l-1086 0 -24 -26z"/>
<path d="M280 2875 c-30 -32 -30 -83 1 -107 20 -17 86 -18 1103 -18 850 0
1086 3 1099 13 9 6 21 27 26 45 8 27 6 36 -16 62 l-25 30 -1082 0 -1083 0 -23
-25z"/>
<path d="M285 2703 c-17 -16 -35 -55 -35 -74 0 -5 11 -21 25 -34 l24 -25 1090
0 1090 0 15 22 c23 33 20 81 -7 106 l-23 22 -1081 0 c-993 0 -1083 -1 -1098
-17z"/>
<path d="M283 2508 c-23 -24 -38 -88 -22 -88 6 0 7 -5 4 -10 -3 -6 6 -15 20
-20 17 -6 411 -10 1103 -10 1204 0 1122 -5 1122 69 0 26 -7 44 -23 59 l-23 22
-1080 0 -1081 0 -20 -22z"/>
<path d="M292 2303 c-13 -5 -39 -51 -38 -68 1 -5 7 -25 15 -42 l13 -33 1092 0
c1219 0 1136 -5 1136 69 0 26 -7 44 -23 59 l-23 22 -1080 -1 c-593 0 -1085 -3
-1092 -6z"/>
<path d="M2305 2025 c-5 -2 -31 -6 -58 -10 -26 -3 -45 -10 -43 -14 3 -4 -19
-14 -49 -21 -30 -7 -55 -17 -55 -21 0 -5 -19 -13 -42 -19 -40 -10 -75 -24
-138 -55 -14 -7 -41 -16 -60 -20 -19 -4 -44 -13 -55 -20 -11 -7 -35 -16 -52
-20 -18 -4 -33 -10 -33 -15 0 -4 -18 -11 -40 -15 -22 -4 -40 -10 -40 -14 0 -4
-22 -14 -50 -21 -27 -7 -50 -17 -50 -20 0 -4 -25 -12 -55 -19 -30 -7 -55 -17
-55 -22 0 -5 -6 -9 -14 -9 -19 0 -66 -60 -73 -93 -3 -15 -10 -30 -14 -33 -12
-7 -12 -104 0 -104 5 0 12 -18 16 -40 4 -22 12 -38 18 -37 7 1 11 -4 10 -10
-2 -7 2 -13 7 -13 6 0 20 -10 33 -22 20 -21 32 -23 123 -23 81 0 106 3 120 17
11 9 35 18 54 21 54 9 80 18 74 28 -3 5 4 9 15 9 11 0 23 5 26 10 3 6 17 10
30 10 13 0 27 5 30 10 3 6 18 10 33 10 29 -1 68 -42 57 -60 -3 -6 -1 -10 5
-10 18 0 7 -42 -15 -54 -11 -6 -22 -14 -25 -18 -3 -3 -22 -9 -43 -13 -20 -4
-37 -11 -37 -15 0 -4 -22 -13 -50 -20 -27 -7 -50 -16 -50 -20 0 -5 -25 -14
-55 -21 -30 -7 -55 -15 -55 -19 0 -4 -14 -10 -31 -14 -16 -3 -37 -13 -46 -21
-18 -18 -46 -12 -74 16 -10 10 -33 26 -51 34 -18 9 -51 27 -73 40 -22 14 -51
30 -65 37 -14 7 -34 21 -44 30 -11 10 -28 18 -38 18 -10 0 -18 4 -18 8 0 5
-16 14 -35 22 -19 8 -35 17 -35 22 0 4 -25 20 -55 34 -30 15 -55 31 -55 35 0
5 -18 14 -40 20 -22 7 -40 18 -40 26 0 7 -8 13 -19 13 -10 0 -30 9 -44 20 -14
11 -30 20 -36 20 -6 0 -11 3 -11 8 0 4 -15 13 -32 21 -18 8 -35 17 -38 21 -5
8 -46 30 -98 55 -18 9 -30 19 -28 24 3 5 -8 11 -25 15 -16 3 -37 13 -46 22
-24 24 -180 17 -194 -8 -6 -10 -15 -18 -22 -18 -7 0 -23 -16 -36 -35 -13 -19
-27 -35 -32 -35 -5 0 -9 -43 -9 -95 0 -52 4 -95 9 -95 4 0 21 -18 36 -40 17
-24 47 -49 78 -65 28 -14 47 -25 43 -25 -22 0 19 -28 56 -39 23 -7 56 -24 73
-37 18 -13 38 -24 45 -24 7 0 10 -7 6 -16 -3 -8 -2 -12 4 -9 12 7 80 -24 80
-36 0 -5 6 -9 14 -9 8 0 16 -5 18 -11 2 -5 10 -11 18 -13 28 -6 59 -21 62 -31
2 -5 7 -9 12 -7 5 2 12 -1 15 -5 3 -5 24 -17 46 -28 22 -10 45 -23 51 -29 18
-17 45 -35 84 -54 19 -10 34 -24 32 -31 -2 -8 3 -11 13 -8 8 4 15 2 15 -3 0
-5 7 -7 15 -4 8 4 15 1 15 -5 0 -6 7 -11 15 -11 8 0 15 -4 15 -10 0 -5 9 -10
20 -10 11 0 20 -4 20 -10 0 -5 6 -10 13 -10 10 0 83 -44 112 -68 10 -8 32 -18
47 -21 4 -1 19 -13 34 -26 15 -14 31 -22 36 -19 5 3 14 1 21 -4 12 -10 111 -9
157 2 24 6 80 29 112 46 10 6 25 10 33 10 8 0 15 5 15 11 0 5 4 8 9 4 5 -3 12
-1 15 4 3 5 22 12 41 15 19 4 35 11 35 15 0 9 50 24 83 26 10 0 22 7 27 15 5
8 10 11 10 6 0 -4 11 -1 25 8 13 9 31 16 39 16 8 0 16 4 18 9 2 5 18 11 36 14
18 3 44 13 58 22 13 9 29 13 34 10 6 -3 10 -1 10 4 0 6 9 11 20 11 11 0 20 5
20 11 0 6 9 8 20 4 12 -4 26 -2 33 3 7 5 36 13 64 17 29 4 55 11 59 16 7 13
254 12 254 -1 0 -6 28 -10 63 -10 51 0 64 4 74 19 9 15 12 127 13 431 0 433 0
440 -44 440 -9 0 -16 5 -16 10 0 6 -7 10 -15 10 -8 0 -15 4 -15 9 0 5 -23 17
-51 26 -28 10 -63 24 -78 31 -14 8 -32 14 -39 14 -8 0 -28 6 -45 14 -45 20
-194 41 -222 31z"/>
<path d="M2840 1455 c-1 -245 -1 -488 -1 -540 -1 -99 8 -126 39 -120 9 2 203
4 430 4 l412 1 0 550 0 550 -440 0 -440 0 0 -445z m680 -100 l0 -375 -35 0
-35 0 0 375 0 375 35 0 35 0 0 -375z m-293 291 c24 -21 28 -32 28 -76 0 -44
-4 -55 -28 -76 -16 -13 -41 -24 -57 -24 -16 0 -41 11 -57 24 -24 21 -28 32
-28 76 0 44 4 55 28 76 16 13 41 24 57 24 16 0 41 -11 57 -24z"/>
</g>
</svg>
