<?xml version="1.0" standalone="no"?>
<!DOCTYPE svg PUBLIC "-//W3C//DTD SVG 20010904//EN"
 "http://www.w3.org/TR/2001/REC-SVG-20010904/DTD/svg10.dtd">
<svg version="1.0" xmlns="http://www.w3.org/2000/svg"
 width="502.049800pt" height="511.823439pt" viewBox="0 0 502.049800 511.823439"
 preserveAspectRatio="xMidYMid meet">

<g transform="translate(-4.948930,512.074522) scale(0.100000,-0.100000)"
fill="#000000" stroke="none">
<path d="M445 5077 c-152 -104 -285 -279 -347 -457 -68 -195 -64 -434 9 -629
68 -181 221 -366 380 -459 l62 -37 3 -1570 c3 -1436 5 -1574 20 -1617 74 -208
277 -334 485 -300 162 27 294 140 351 300 15 43 17 181 20 1627 l3 1580 59 39
c33 21 92 69 130 107 252 250 337 606 228 949 -57 179 -194 360 -355 469 l-63
42 0 -373 0 -373 -68 -37 c-37 -21 -140 -80 -228 -132 l-162 -94 -228 133
-229 132 -5 370 -5 371 -60 -41z m595 -4569 c67 -34 93 -79 88 -153 -6 -102
-63 -155 -166 -155 -64 0 -110 30 -141 93 -35 70 -24 128 34 184 61 58 114 67
185 31z"/>
<path d="M2064 4173 c-3 -15 -10 -44 -15 -63 -5 -19 -9 -38 -9 -42 0 -5 289
-8 643 -8 706 0 707 0 836 -62 45 -21 89 -54 138 -103 110 -109 124 -146 248
-642 58 -233 105 -427 105 -433 0 -7 -393 -10 -1200 -10 l-1200 0 -2 -402 c-2
-222 -3 -453 -2 -515 0 -85 -3 -113 -13 -117 -20 -8 -19 -176 2 -176 13 0 15
-44 15 -335 l0 -335 783 -2 782 -3 5 -245 5 -245 27 -47 c138 -235 626 -267
837 -56 75 75 81 104 81 397 l0 246 78 39 c138 71 246 196 288 336 21 70 20
913 -1 995 -22 83 -68 156 -147 231 l-68 63 33 5 c17 3 191 13 385 23 332 16
354 18 364 37 17 31 5 352 -15 398 -33 78 -149 103 -344 74 -109 -16 -327 -71
-395 -99 l-34 -14 -18 -164 c-25 -237 -23 -230 -52 -217 -14 6 -27 21 -29 32
-3 12 -52 226 -110 477 -57 251 -116 486 -131 523 -52 131 -163 273 -269 346
-66 45 -163 90 -244 113 -73 20 -98 21 -713 25 l-637 3 -7 -28z m2094 -2355
l-3 -203 -430 0 -430 0 -3 203 -2 202 435 0 435 0 -2 -202z m-1078 102 l0 -90
-735 0 -735 0 0 90 0 90 735 0 735 0 0 -90z m-20 -230 l0 -90 -725 0 -725 0 0
90 0 90 725 0 725 0 0 -90z"/>
</g>
</svg>
